<?xml version="1.0" encoding="UTF-8" standalone="no"?>
<svg
   version="1.2"
   viewBox="0 0 565 779"
   width="565"
   height="779"
   id="svg108"
   sodipodi:docname="milk-pack.svg"
   xmlns:inkscape="http://www.inkscape.org/namespaces/inkscape"
   xmlns:sodipodi="http://sodipodi.sourceforge.net/DTD/sodipodi-0.dtd"
   xmlns="http://www.w3.org/2000/svg"
   xmlns:svg="http://www.w3.org/2000/svg">
  <style
     id="style2">.a{fill:#ff5156}.b{fill:none;stroke:#ff5156}</style>
  <path
     class="a"
     d="m39.7 112.3q0.6 8.3 0.9 16.7c1.6 43.9-2.9 87.8-2 131.7 0.4 20.5 2.3 40.9 2.7 61.4 0.4 20.2 0.3 40.4-0.1 60.7-0.8 40.9-1.6 81.7-0.9 122.7 0.7 41.8 2.3 83.6 4 125.3 1.5 37.6 3.2 75.1 4.2 112.7 0.1 6.4-9.9 6.4-10 0q-0.2-6.4-0.4-12.7c-1.1-38.3-2.9-76.6-4.4-114.9-1.7-42-3.1-84-3.6-126.1-0.5-40.6 0.8-81 1.3-121.6 0.3-20.3 0.2-40.5-0.5-60.8-0.8-21-2.5-41.9-2.4-63 0.2-44.1 4.3-88.1 1.2-132.1-0.4-6.5 9.6-6.4 10 0z"
     id="path4" />
  <path
     class="a"
     d="m38.5 743.5c-0.1-2.7 2.4-5.1 5-5q2.6 0 5.2 0.1c13.4 0.3 26.8 1.1 40.3 2.1 12.9 1 25.9 2.2 38.8 3.4 13.3 1.2 26.5 2.5 39.8 3.5 14 1 28.1 1.8 42.1 2.2q23.4 0.7 46.8-0.1c2.8-0.1 4.9 2.4 5 5 0.1 2.8-2.4 4.9-5 5q-3.1 0.1-6.1 0.2-23.1 0.6-46.1-0.3c-14-0.5-27.9-1.3-41.7-2.4-13.2-1.1-26.4-2.3-39.6-3.5-13-1.2-26-2.4-38.9-3.3-13.6-1-27.1-1.7-40.6-1.9-2.8-0.1-4.9-2.3-5-5z"
     id="path6" />
  <path
     class="a"
     d="m253.1 754.1q0.3-10.6 0.6-21.2c1.7-57.9 2-115.8 1-173.6-0.9-46.8-3.2-93.5-5.1-140.2-1.4-34.9-2.5-69.8-3.3-104.7-0.8-39-1.3-78.1-1-117.2 0.2-30.4 0.5-61.1 3.6-91.4 0.3-2.7 2.1-5 5-5 2.5 0 5.3 2.3 5 5q-0.4 4.2-0.8 8.5c-2.6 32.1-2.8 64.5-2.9 96.8-0.1 39.2 0.5 78.4 1.5 117.6 0.8 33.5 1.9 67 3.3 100.4 2.2 50.5 4.3 100.9 5 151.5 0.7 57.8 0.1 115.7-1.9 173.5-0.3 6.5-10.3 6.5-10 0z"
     id="path8" />
  <path
     class="a"
     d="m335.5 718.4c1.3 2.1 0.5 5.7-1.8 6.8q-8.4 4-16.8 7.9c-18.4 8.6-36.9 17-55.3 25.7-2.6 1.2-5.3 0.7-6.9-1.8-1.4-2.1-0.6-5.7 1.8-6.8q8.4-4 16.8-7.9c18.4-8.6 36.9-17 55.3-25.7 2.6-1.2 5.3-0.7 6.9 1.8z"
     id="path10" />
  <path
     class="a"
     d="m330.1 725.4c-2.8-0.8-3.9-3.5-3.5-6.1q1.5-8.9 2.6-17.9c6.4-51.6 6.5-103.8 7.3-155.8 0.3-24.9 0.9-49.8 1.4-74.8 0.7-33.9 1.4-67.9 1.9-101.9 0.3-25.7 0.9-51.5 0.4-77.3-1-52.2-5.5-104.3-7.2-156.5-0.2-6.4 9.8-6.4 10 0q0.3 10.2 0.8 20.4c2 47.4 6.1 94.8 6.5 142.3 0.2 27.9-0.3 55.9-0.7 83.8-0.6 33.8-1.2 67.5-1.9 101.2-0.6 27.8-1.1 55.7-1.5 83.5-0.8 51.9-1.6 104.2-9.9 155.6-0.5 2.7-3.8 4.2-6.2 3.5z"
     id="path12" />
  <path
     class="a"
     d="m259.3 106.1c0.1 2.7-2.4 5-5 5-18.6 0.2-37.2 0.2-55.7 0.4-16.6 0.1-33.2 0.4-49.8 1-16.3 0.6-32.6 1.7-49 2.7q-18.9 1.2-37.7 2.3c-5.3 0.3-10.5 0.5-15.7 0.6-4.2 0.1-8.5 0.2-12.6-0.5-2.8-0.6-4.1-3.7-3.5-6.2 0.6-2.8 3.6-4 6.1-3.5q0.3 0.1 0.6 0.1c-1.7-0.4-1.1-0.1-0.7-0.1q0.7 0.1 1.3 0.1 1.6 0.1 3.2 0.2c2.7 0 5.3 0 8-0.1 5.8-0.2 11.5-0.5 17.3-0.8 29.7-1.8 59.4-4 89.2-5 33-1.1 66-0.9 99-1.2 2.8 0 4.9 2.3 5 5z"
     id="path14" />
  <path
     class="a"
     d="m89.2 69.6c1.6 2.4 0.3 5.3-1.8 6.8q-5.9 4.3-11.7 8.7c-1.2 0.9 0.4-0.3-0.3 0.2q-0.3 0.3-0.6 0.5-0.6 0.5-1.3 1-1.2 0.9-2.4 1.9-2.5 2-4.9 4-5 4.1-9.8 8.3c-6.4 5.6-12.3 12.5-20.4 15.7-2.6 1-5.3-1.2-6.1-3.5-0.9-2.8 1.1-5.2 3.5-6.2-1 0.4 0 0 0.2-0.1q0.3-0.1 0.7-0.3 0.6-0.4 1.3-0.8 0.7-0.4 1.4-0.9 0.3-0.2 0.6-0.5c0 0.1-0.6 0.5-0.1 0.2q2.4-2.2 4.8-4.4c12.7-11.6 26.1-22.4 40.1-32.4 2.2-1.6 5.4-0.3 6.8 1.8z"
     id="path16" />
  <path
     class="a"
     d="m300.1 60.8c1.9 1.7 2 5.4 0 7.1q-5.3 4.4-10.4 8.9c-11.8 10.5-22.9 21.7-33.3 33.6-1.8 2.1-5.2 1.7-7 0-2.1-1.9-1.8-5.1 0-7.1q4.4-5.1 9.1-10c10.8-11.5 22.4-22.4 34.5-32.5 2.2-1.8 5-1.9 7.1 0z"
     id="path18" />
  <path
     class="a"
     d="m342.1 137.3c-1.3 2.4-4.6 3.1-6.9 1.8q-8.4-4.9-17.4-8.7c-0.2-0.1-1.4-0.6-0.5-0.2q-0.4-0.2-0.8-0.4-1-0.4-1.9-0.8-2-0.8-4.1-1.5-3.9-1.5-7.9-2.8c-5.5-1.8-11.1-3.3-16.7-4.6-2.9-0.7-5.9-1.4-8.8-2.2-2.9-0.8-5.7-1.8-8.6-2.8-5.2-1.8-10.6-2.8-15.9-4.2-2.7-0.7-4.1-3.5-3.5-6.1 0.6-2.7 3.6-4.2 6.1-3.5 6.1 1.6 12.3 2.8 18.2 5 5.7 2 11.6 3.3 17.5 4.7q8.6 2.1 16.9 4.9c11.3 3.8 22.2 8.6 32.5 14.5 2.4 1.4 3 4.5 1.8 6.9z"
     id="path20" />
  <path
     class="a"
     d="m295 59.3c2.3-1.5 5.5-0.5 6.8 1.8q4.8 7.7 9.4 15.5 16.2 27.3 31.2 55.3c1.3 2.5 0.5 5.3-1.8 6.8-2.2 1.5-5.6 0.6-6.9-1.8q-4.2-7.9-8.6-15.8-15.3-27.8-31.9-55c-1.5-2.4-0.4-5.4 1.8-6.8z"
     id="path22" />
  <path
     class="a"
     d="m302.6 64.4c0.2 2.5-2.3 5.1-5 5q-23.2-1.8-46.6-1.8c-27.5-0.1-54.9 1.7-82.3 4.2-27.3 2.5-54.8 5-82.3 3.4-2.8-0.1-4.9-2.1-5-5-0.1-2.6 2.4-5.1 5-5 15.5 0.9 30.9 0.5 46.4-0.5 27.3-1.7 54.6-5 81.9-6.3 27.7-1.3 55.4-1.1 82.9 1 2.8 0.2 4.9 2.1 5 5z"
     id="path24" />
  <path
     class="a"
     d="m298.9 69.4c-2.9 0.2-4.7-2.4-5-5-0.3-3-0.5-6.1-0.7-9.3-0.3-6.6-0.3-13.2-0.8-19.8-0.1-1.7-0.2-3.3-0.5-5 0.2 1.3 0-0.1-0.1-0.3q0-0.5-0.2-1-0.1-0.5-0.3-1c0.4 1.1-0.1-0.1-0.2-0.3q-0.5-0.7 0.1 0-0.2-0.3-0.5-0.5-0.3-0.3-0.5-0.6c-0.9-0.8 0.8 0.5-0.3-0.1-0.3-0.2-0.6-0.5-1-0.7q-0.8-0.5-1.7-0.9c-0.3-0.1-1.3-0.7-0.2-0.1-0.3-0.2-0.6-0.2-0.9-0.3q-2.1-0.8-4.3-1.2c-0.4 0-0.8-0.2-1.2-0.2 1.3 0.1 0 0-0.2 0q-1-0.1-2.1-0.2c-3.1-0.1-6.3 0-9.4 0.4q-0.6 0-1.2 0.1c-1.4 0.2 1-0.2-0.3 0.1q-1 0.1-2 0.3c-1 0.1-2.1 0.4-3.1 0.5q-1.1 0.2-2.2 0.3c-10 1.1-20.1 1.5-30.1 2.1q-26.5 1.7-53.1 3.1c-16.9 1-33.8 1.9-50.7 2.6q-5.7 0.3-11.3 0.5-2.8 0.1-5.6 0.3-1.2 0.1-2.3 0.3c1.1-0.2-0.4 0-0.5 0.1q-0.7 0.1-1.4 0.2-2.3 0.5-4.5 1.2c-0.3 0.1-0.8 0.2-1.1 0.4 1-0.6 0 0-0.2 0.1q-0.9 0.4-1.8 0.9c-0.7 0.4-1.6 0.9-2.2 1.5 0.1-0.1 0.8-0.7 0.1-0.1q-0.4 0.4-0.8 0.7c-0.5 0.5-0.9 0.9-1.3 1.4-0.8 0.9 0.5-0.9-0.1 0.1q-0.3 0.5-0.6 1-0.4 0.6-0.7 1.3c-0.3 0.7 0.3-1.1 0 0.1-0.2 0.8-0.5 1.6-0.7 2.4q-0.1 0.4-0.1 0.8c-0.3 1.4 0-1-0.1 0.4 0 0.7-0.1 1.4-0.1 2.1-0.1 3.4 0.1 6.9 0.3 10.3q0.2 5.6 0.4 11.3c0.1 2.8-2.4 4.8-5 5-2.8 0.1-4.9-2.4-5-5q-0.2-5.7-0.4-11.3c-0.3-7.2-1-14.6 2.2-21.4 2.9-6.1 9.3-10.1 15.7-12 6.5-2 13.6-2 20.4-2.3q5.1-0.2 10.2-0.4c17.7-0.8 35.5-1.8 53.3-2.8q26.5-1.5 53-3.2 8.8-0.5 17.7-1.2 2.6-0.1 5.2-0.4 0.8 0 1.5-0.1c1.1-0.1-1.3 0.2-0.8 0.1q1-0.2 2-0.4c6.5-1.2 13.3-1.9 20-1 3.6 0.4 6.9 1.3 10.3 2.8 3.2 1.5 6.4 3.7 8.1 6.9 1.7 3.4 2 7.3 2.3 11 0.3 3.3 0.4 6.7 0.6 10 0.2 6.8 0.3 13.7 1 20.4 0.4 2.8-2.5 4.9-5 5z"
     id="path26" />
  <path
     class="a"
     d="m280.4 80.6c3.9 4 7.7 8 11.7 11.9 6.5 6.5 13.7 12.4 21.1 18 3.6 2.8 7.4 5.5 11.1 8.3 3.7 2.7 7.4 5.4 11.4 7.6 2.9 1.5 0.4 5.8-2.5 4.3-4.6-2.5-8.8-5.6-13-8.7-7.6-5.7-15.3-11.4-22.5-17.6-7.4-6.3-14-13.3-20.8-20.2-2.3-2.3 1.3-5.9 3.5-3.6z"
     id="path28" />
  <path
     class="a"
     d="m63.1 697.8q6-6.7 12.6-12.7c1.5-1.4 3.4 0 3.1 1.8-1.6 10.1-2.5 20.3-2.7 30.5-0.1 2.4-3.9 2.4-3.8 0 0.3-10.6 1.3-21.1 2.9-31.5q1.6 0.9 3.2 1.8-6.6 6.1-12.6 12.7c-1.6 1.8-4.3-0.8-2.7-2.6z"
     id="path30" />
  <path
     class="a"
     d="m87.9 686.8q-0.3 15.1-0.5 30.3-1.6-0.7-3.2-1.3c3.9-3.9 9.6-5.6 14.9-3.7 2.3 0.7 1.3 4.4-1 3.6-4.1-1.4-8.3-0.3-11.3 2.7-1.1 1.2-3.2 0.3-3.2-1.3q0.3-15.2 0.5-30.3c0.1-2.4 3.8-2.4 3.8 0z"
     id="path32" />
  <path
     class="b"
     d=""
     id="path34" />
  <path
     class="a"
     d="m108.9 49.9c1.5 0 2.3 1.2 2.5 2.5q1.2 10.1 2.9 20.1c0.5 3.3 1 6.6 1.7 9.9 0.2 1.2 0.5 1.7 1.6 2.1 1.5 0.6 3 1 4.5 1.5 22.5 6.4 46.1 2.1 68.3-2.9 5.5-1.3 11.1-2.4 16.3-4.5q1.7-0.7 3.4-1.6c0.3-0.2 1.1-0.5 1.3-0.8 0.1-0.3 0-0.9-0.1-1.2q-0.3-4.1-0.8-8.1c-0.9-8.2-2.6-16.2-3.9-24.3-0.3-1.3 0.3-2.7 1.7-3.1 1.2-0.3 2.8 0.4 3.1 1.8 1.7 10.3 3.7 20.5 4.7 30.9 0.1 1.6 0.5 3.4 0.2 5-0.3 1.5-1.3 2.6-2.6 3.5-2.4 1.5-5.2 2.6-8 3.6-5.7 2-11.8 3.1-17.7 4.4-12.3 2.8-24.8 5-37.4 5.4-6.1 0.2-12.2-0.1-18.3-0.9q-4.6-0.7-9-1.8c-2.8-0.7-5.7-1.4-8.3-2.6-3.1-1.5-3.7-4.4-4.2-7.4q-0.9-4.7-1.7-9.5-1.5-9.7-2.7-19.5c-0.2-1.3 1.3-2.5 2.5-2.5z"
     id="path36" />
  <path
     class="a"
     d="m206.7 35.7c1.4-0.3 2.7 0.5 3.1 1.8 0.6 1.7 0.5 3.6-0.3 5.2-1.5 3.2-5.2 5.1-8.3 6.5-3.9 1.7-8.1 3.1-12.3 4.3-10.3 3-21 4.3-31.7 4.8-6.7 0.3-13.5 0.3-20.2 0.4-6.3 0.1-12.6 0-18.8-0.8-5.2-0.7-13.1-2.7-11.4-9.8 1-4 5.3-6 8.9-7.3 2.9-1 5.9-1.8 8.9-2.4 6.8-1.3 13.6-2.2 20.3-3.2 6.1-0.9 12.2-1.7 18.3-2.2 10.1-1 20.3-1.7 30.4-1.2 3.4 0.2 7 0.4 10.4 1.4 2.5 0.7 4.8 1.8 5.8 4.3 0.5 1.2-0.6 2.7-1.7 3-1.5 0.4-2.6-0.5-3.1-1.7 0.4 1.1-0.3-0.2 0.1 0.3 0.3 0.4-0.1-0.2-0.2-0.2 0.1 0 0.4 0.3-0.1 0q-0.3-0.2-0.6-0.4c-0.5-0.3 0.3 0.1-0.2-0.1q-0.4-0.1-0.8-0.2-0.8-0.3-1.7-0.5c-1.6-0.3-2.6-0.5-4.1-0.6-3.9-0.4-7.9-0.5-11.8-0.4-9.8 0.1-19.7 0.9-29.4 2q-1.1 0.1-2.1 0.3-0.8 0.1-1.6 0.2-0.4 0-0.9 0.1c0.6-0.1-0.3 0-0.5 0q-4.5 0.7-9 1.3c-6 0.9-12.1 1.8-18.1 3.1-3 0.6-6.2 1.4-9 2.8-0.7 0.3-1.7 0.9-2.1 1.2q-0.4 0.3-0.7 0.7c-0.1 0-0.3 0.4-0.1 0.1q-0.2 0.2-0.3 0.4c-0.1 0.3-0.2 0.6-0.2 1.1 0-0.1 0.2 1.5 0.1 0.4 0 0.2 0.1 0.4 0.2 0.5-0.3-0.5-0.1-0.3 0.1 0 0.3 0.4-0.3-0.2 0.1 0.1 0.4 0.2 0.8 0.5 1.3 0.7-0.6-0.3 0.2 0 0.3 0.1q0.4 0.1 0.8 0.2 0.9 0.3 1.8 0.5c2.8 0.6 5.3 0.8 8.5 1 4.9 0.3 9.8 0.3 14.7 0.1 7.7-0.1 15.3-0.1 22.9-0.6 10.1-0.8 20-2.5 29.6-5.7 3.2-1.1 6.5-2.1 9.5-3.8 0.6-0.3 1.7-1 1.9-1.2q0.5-0.3 0.8-0.7c0.1-0.1 0.7-0.7 0.4-0.4q0.2-0.3 0.3-0.5c0.1-0.1 0.3-0.5 0.2-0.2-0.1 0.1 0.1-0.6 0.2-0.8-0.1 0.7-0.1-0.6 0 0q-0.1-0.4-0.3-0.9c-0.5-1.3 0.5-2.7 1.7-3.1z"
     id="path38" />
  <path
     class="a"
     d="m317.1 695.4c1-11.4 2-22.9 1.8-34.4-0.1-1.6 2.4-1.6 2.5 0 0.2 11.5-0.8 23-1.8 34.4-0.2 1.6-2.7 1.6-2.5 0z"
     id="path40" />
  <path
     class="a"
     d="m310.7 699.6c0-11.5 0.6-23 1.8-34.4 0.1-1.6 2.7-1.6 2.5 0-1.2 11.4-1.8 22.9-1.8 34.4 0 1.6-2.5 1.6-2.5 0z"
     id="path42" />
  <path
     class="a"
     d="m304.6 702.7c0.5-11.5 1.2-22.9 1.8-34.4 0-1.6 2.5-1.6 2.5 0-0.6 11.5-1.3 22.9-1.8 34.4-0.1 1.6-2.6 1.6-2.5 0z"
     id="path44" />
  <path
     class="a"
     d="m297.8 705.4c1.1-11.4 1-22.9 1.8-34.3 0.1-1.6 2.6-1.6 2.5 0-0.8 11.4-0.7 22.9-1.8 34.3-0.1 1.6-2.6 1.6-2.5 0z"
     id="path46" />
  <path
     class="a"
     d="m291.4 709.4c1.1-11.4 1-22.9 1.8-34.4 0.1-1.6 2.6-1.6 2.5 0-0.8 11.5-0.7 23-1.8 34.4-0.2 1.6-2.7 1.6-2.5 0z"
     id="path48" />
  <path
     class="a"
     d="m341.2 566c18.5-14.7 3.9-3.8 22.4-18.5 11.7-9.4 23.7-18.8 37.7-24.1 17.9-6.7 37.8-6.1 56.5-2.3 27.7 5.5 54.2 19.6 76.4 37.1 2.6 2 5.3 4.4 5.7 7.7 0.4 3.2-1.6 6.1-3.6 8.6-19 24.3-45.7 39-69.9 58-38.6 30.2-31.7 26.9-68.8 58.8-37.2 32-86.5 58.9-134.9 66.5l68.4-36.9z"
     id="path50" />
  <path
     class="a"
     d="m75.5 149.3q0.3 12.9 0.4 25.9 0.2 45.9-2.6 91.8c-0.2 3.2-5.2 3.2-5 0q0.8-12.9 1.3-25.8 2-45.9 0.9-91.9c0-3.2 5-3.2 5 0z"
     id="path52" />
  <path
     class="a"
     d="m73.9 288.8q0 9.4 0 18.8c0 3.2-5 3.2-5 0q0-9.4 0-18.8c0-3.2 5-3.2 5 0z"
     id="path54" />
  <path
     class="b"
     d=""
     id="path86" />
</svg>
