<?xml version="1.0" encoding="UTF-8" standalone="no"?>
<svg
   viewBox="0 0 80 80"
   version="1.1"
   id="svg65"
   sodipodi:docname="ticket.svg"
   inkscape:version="1.1.1 (3bf5ae0d25, 2021-09-20)"
   xmlns:inkscape="http://www.inkscape.org/namespaces/inkscape"
   xmlns:sodipodi="http://sodipodi.sourceforge.net/DTD/sodipodi-0.dtd"
   xmlns="http://www.w3.org/2000/svg"
   xmlns:svg="http://www.w3.org/2000/svg">
  <defs
     id="defs10" />
  <sodipodi:namedview
     id="namedview8"
     pagecolor="#ffffff"
     bordercolor="#666666"
     borderopacity="1.0"
     inkscape:pageshadow="2"
     inkscape:pageopacity="0.0"
     inkscape:pagecheckerboard="0"
     showgrid="false"
     inkscape:zoom="10.75"
     inkscape:cx="29.255814"
     inkscape:cy="37.488372"
     inkscape:window-width="1920"
     inkscape:window-height="1024"
     inkscape:window-x="0"
     inkscape:window-y="30"
     inkscape:window-maximized="1"
     inkscape:current-layer="svg65" />
  <style
     id="style723">.a{fill:#eae1d0}</style>
  <path
     class="a"
     d="M 22.627071,5.626186 C 20.677732,4.6988769 18.317763,5.5373386 17.390454,7.4866788 l -5.908218,12.4199422 0.887139,0.422016 c 2.950235,1.403439 4.194178,4.904691 2.790739,7.854927 -1.403439,2.950234 -4.904691,4.194178 -7.8549262,2.790739 L 6.4180489,30.552288 0.50983077,42.972231 c -0.92730919,1.949339 -0.0888473,4.309308 1.86049283,5.236616 L 57.372929,74.373814 c 1.949339,0.927309 4.309308,0.08885 5.236617,-1.860492 l 5.908218,-12.419943 -0.887139,-0.422016 c -2.950235,-1.403439 -4.194178,-4.904691 -2.790739,-7.854927 1.403439,-2.950234 4.904691,-4.194178 7.854926,-2.790739 l 0.887139,0.422015 5.908218,-12.419943 c 0.927309,-1.949339 0.08885,-4.309307 -1.860492,-5.236616 z m 12.084143,11.187943 c -0.489953,-0.233072 -1.076082,-0.02483 -1.309154,0.465124 -0.233073,0.489953 -0.02483,1.076081 0.465123,1.309154 0.489953,0.233073 1.076082,0.02483 1.309155,-0.465123 0.233073,-0.489954 0.02483,-1.076083 -0.465124,-1.309155 z m -1.688062,3.548555 c -0.489953,-0.233073 -1.076081,-0.02483 -1.309154,0.465123 -0.233073,0.489953 -0.02483,1.076082 0.465123,1.309155 0.489954,0.233073 1.076083,0.02483 1.309155,-0.465124 0.233072,-0.489953 0.02483,-1.076082 -0.465124,-1.309154 z M 31.33509,23.91124 c -0.489953,-0.233073 -1.076081,-0.02483 -1.309154,0.465123 -0.233073,0.489953 -0.02483,1.076082 0.465122,1.309155 0.489953,0.233072 1.076082,0.02483 1.309154,-0.465124 0.233073,-0.489953 0.02483,-1.076081 -0.465122,-1.309154 z m -1.688063,3.548554 c -0.489953,-0.233072 -1.076082,-0.02483 -1.309154,0.465124 -0.233073,0.489953 -0.02483,1.076081 0.465123,1.309154 0.489953,0.233073 1.076081,0.02483 1.309154,-0.465123 0.233073,-0.489953 0.02483,-1.076082 -0.465123,-1.309155 z m -1.688062,3.548556 c -0.489953,-0.233073 -1.076082,-0.02483 -1.309155,0.465123 -0.233072,0.489953 -0.02483,1.076082 0.465124,1.309154 0.489953,0.233073 1.076081,0.02483 1.309154,-0.465122 0.233073,-0.489953 0.02483,-1.076082 -0.465123,-1.309155 z m -1.688062,3.548555 c -0.489953,-0.233073 -1.076082,-0.02483 -1.309155,0.465123 -0.233073,0.489953 -0.02483,1.076082 0.465123,1.309155 0.489954,0.233073 1.076083,0.02483 1.309155,-0.465124 0.233073,-0.489953 0.02483,-1.076081 -0.465123,-1.309154 z M 24.58284,38.10546 c -0.489953,-0.233073 -1.076081,-0.02483 -1.309154,0.465123 -0.233073,0.489953 -0.02483,1.076081 0.465123,1.309154 0.489953,0.233073 1.076082,0.02483 1.309155,-0.465122 0.233073,-0.489954 0.02483,-1.076083 -0.465124,-1.309155 z m -1.688062,3.548555 c -0.489953,-0.233072 -1.076082,-0.02483 -1.309154,0.465124 -0.233073,0.489953 -0.02483,1.076081 0.465123,1.309154 0.489953,0.233073 1.076082,0.02483 1.309155,-0.465123 0.233073,-0.489954 0.02483,-1.076083 -0.465124,-1.309155 z m -1.688062,3.548556 c -0.489953,-0.233073 -1.076081,-0.02483 -1.309154,0.465122 -0.233073,0.489953 -0.02483,1.076082 0.465122,1.309155 0.489953,0.233072 1.076082,0.02483 1.309154,-0.465124 0.233072,-0.489953 0.02483,-1.07608 -0.465122,-1.309153 z m -1.688063,3.548555 c -0.489953,-0.233073 -1.076082,-0.02483 -1.309155,0.465123 -0.233072,0.489953 -0.02483,1.076082 0.465124,1.309154 0.489953,0.233073 1.076081,0.02483 1.309154,-0.465123 0.233073,-0.489953 0.02483,-1.076081 -0.465123,-1.309154 z m -2.073381,3.850108 c -0.489953,-0.233073 -1.076082,-0.02483 -1.309155,0.465123 -0.233072,0.489953 -0.02483,1.076082 0.465124,1.309154 0.489953,0.233073 1.076081,0.02483 1.309154,-0.465123 0.233073,-0.489953 0.02483,-1.076081 -0.465123,-1.309154 z M 36.515039,13.252396 c -0.489953,-0.233073 -1.076082,-0.02483 -1.309155,0.465123 -0.233072,0.489953 -0.02483,1.076082 0.465124,1.309154 0.489953,0.233073 1.076081,0.02483 1.309154,-0.465123 0.233073,-0.489953 0.02483,-1.076081 -0.465123,-1.309154 z"
     id="path63"
     sodipodi:nodetypes="cscssscscsscssscsccssssssssssssssssssssssssssssssssssssssssssssssssss"
     style="fill-rule:evenodd;fill:#ff5156;fill-opacity:1" />
  <g
     id="g905"
     transform="matrix(0.02861694,-0.00236151,0.00236151,0.02861694,34.135216,30.681214)" />
</svg>
